<?xml version="1.0" encoding="utf-8"?>
<!-- Generator: Adobe Illustrator 25.4.1, SVG Export Plug-In . SVG Version: 6.00 Build 0)  -->
<svg version="1.1" id="Layer_1" xmlns="http://www.w3.org/2000/svg" xmlns:xlink="http://www.w3.org/1999/xlink" x="0px" y="0px"
	 viewBox="0 0 246 244.6" style="enable-background:new 0 0 246 244.6;" xml:space="preserve">
<style type="text/css">
	.st0{fill:#FFFFFF;}
	.st1{fill:#00529B;}
</style>
<g>
	<circle class="st0" cx="123.1" cy="122.8" r="120"/>
	<g>
		<g>
			<polygon class="st1" points="106.1,129.3 94.6,137.6 108.5,147.7 112.9,134.3 			"/>
			<polygon class="st1" points="110.6,149.2 122,157.5 133.4,149.2 122,140.9 			"/>
			<polygon class="st1" points="116.4,123.6 74.5,93.2 84.3,113.5 98.2,123.6 			"/>
			<polygon class="st1" points="120.7,110.2 62.3,67.7 72.1,88.1 117.2,120.9 			"/>
			<polygon class="st1" points="70.6,51.1 63.7,65.4 84.9,80.8 			"/>
			<polygon class="st1" points="131.1,134.3 135.5,147.7 149.3,137.6 137.9,129.3 			"/>
			<polygon class="st1" points="145.8,123.6 159.7,113.5 169.5,93.2 127.6,123.6 			"/>
			<polygon class="st1" points="123.3,110.2 126.7,120.9 171.9,88.1 181.7,67.7 			"/>
			<polygon class="st1" points="173.4,51.1 159.1,80.8 180.3,65.4 			"/>
			<path class="st1" d="M115.7,131.3c0-3.5,2.8-6.3,6.3-6.3c3.5,0,6.3,2.8,6.3,6.3c0,3.5-2.8,6.3-6.3,6.3
				C118.5,137.7,115.7,134.8,115.7,131.3z"/>
		</g>
		<g>
			<path class="st1" d="M32,178.1h4.6v7.3c0,0.8,0.1,1.4,0.4,1.9c0.6,1,1.7,1.3,2.7,1.3c1.2,0,1.9-0.4,2.2-0.7
				c0.8-0.7,0.8-1.9,0.8-2.5v-7.2h4.6v6.7c0,1.5,0,3.1-0.7,4.2c-1.4,2.2-4.8,2.4-6.8,2.4c-2.9,0-4.5-0.4-5.4-1c-2-1-2.2-3-2.2-4.1
				L32,178.1L32,178.1z"/>
			<path class="st1" d="M48.4,187.6h4.2v3.3h-4.2V187.6z"/>
			<path class="st1" d="M59.6,181.4c0,0.2,0.1,0.3,0.1,0.5c0.3,0.4,1.6,0.7,2.3,0.8c0.9,0.2,1.8,0.4,2.6,0.6
				c0.6,0.1,1.1,0.2,1.7,0.5c1.7,0.6,2.3,1.9,2.3,3.1c0,0.9-0.3,1.6-0.7,2.2c-1.1,1.6-3.2,2.3-6.7,2.3c-1.3,0-3.9-0.1-5.4-1.5
				c-1.1-1-1.3-2.2-1.3-2.7l4.5-0.1c0.2,0.8,1,1.5,2.8,1.5c0.5,0,1.1-0.1,1.6-0.3c0.3-0.2,0.6-0.5,0.6-1c0-0.6-0.5-0.9-0.9-1
				c-0.6-0.2-3.5-0.7-4.1-0.8c-0.5-0.1-1-0.2-1.5-0.4c-0.5-0.2-2.5-0.9-2.5-3.3c0-1,0.4-1.9,1-2.5c1.4-1.5,4-1.6,5.4-1.6
				c1.6,0,3.1,0.2,3.9,0.5c2.4,0.8,2.7,2.6,2.8,3.3l-4.5,0.3c-0.1-0.4-0.3-1.2-2.3-1.2C61,180.4,59.6,180.5,59.6,181.4z"/>
			<path class="st1" d="M70.1,187.6h4.2v3.3h-4.2V187.6z"/>
			<path class="st1" d="M91,186h-3l1.5-4.3L91,186z M81.3,190.9h5l0.7-2.1H92l0.7,2.1h5l-5.6-12.8h-5.2L81.3,190.9z"/>
			<path class="st1" d="M104,178.1v12.8h-4.6v-12.8H104z"/>
			<path class="st1" d="M112,181h3.8c0.3,0,0.8,0,1.2,0.4c0.2,0.2,0.3,0.5,0.3,0.8c0,1.1-1.2,1.2-1.9,1.2H112V181z M107.4,190.9h4.6
				v-4.7h2.5l2.6,4.7h5.1l-3.2-5.1c0.5-0.1,1.4-0.3,2.1-1.2c0.5-0.6,0.8-1.5,0.8-2.4c0-1.3-0.6-2.5-1.5-3.3
				c-1.1-0.8-2.5-0.8-3.6-0.8h-9.4V190.9z"/>
			<path class="st1" d="M129.1,178.1h12.6v2.9h-8v2.5h7.3v2.9h-7.3v4.6h-4.6L129.1,178.1L129.1,178.1z"/>
			<path class="st1" d="M152,180.5c3.1,0,3.8,2.6,3.8,4c0,1.3-0.5,3-1.9,3.7c-0.6,0.3-1.2,0.4-1.9,0.4c-2.8,0-3.9-2.1-3.9-4
				C148.1,182.7,149.1,180.4,152,180.5z M151.7,177.6c-2.3,0-5.3,0.5-7.1,3c-0.8,1.2-1.2,2.6-1.2,4c0,1.5,0.3,2.7,1.2,3.9
				c0.9,1.3,2.8,2.9,7.3,2.9c2.3,0,4.4-0.3,6.2-1.7c0.6-0.5,1.1-1.1,1.5-1.7c0.6-1.1,0.9-2.3,0.9-3.5c0-2.2-1-4.9-4-6.1
				C155,177.8,153.3,177.6,151.7,177.6z"/>
			<path class="st1" d="M167.6,181h3.8c0.3,0,0.8,0,1.2,0.4c0.2,0.2,0.3,0.5,0.3,0.8c0,1.1-1.2,1.2-1.9,1.2h-3.5V181L167.6,181z
				 M163,190.9h4.6v-4.7h2.5l2.6,4.7h5.1l-3.2-5.1c0.5-0.1,1.4-0.3,2.1-1.2c0.5-0.6,0.8-1.5,0.8-2.4c0-1.3-0.6-2.5-1.5-3.3
				c-1.1-0.8-2.5-0.8-3.6-0.8H163L163,190.9L163,190.9z"/>
			<path class="st1" d="M184.5,184.5c0,1.9,1.1,4,3.8,4c1,0,1.9-0.3,2.6-0.9c0.6-0.5,0.8-0.9,0.9-1.3l4.4,0.5
				c-0.1,0.5-0.3,0.9-0.7,1.6c-1.5,2.3-4.5,3-7.3,3c-1.3,0-2.5-0.1-3.7-0.5c-2.6-0.8-4.8-2.8-4.8-6.4c0-2.5,1.3-7,8.6-7
				c6.2,0,7.2,2.8,7.6,4.1l-4.3,0.8c-0.2-0.4-0.4-0.9-1.1-1.3c-0.7-0.4-1.5-0.6-2.2-0.6C186.4,180.5,184.5,181.8,184.5,184.5z"/>
			<path class="st1" d="M211.8,178.1v2.9h-8.9v2.1h8.3v2.9h-8.3v2h9.1v2.9h-13.7v-12.8H211.8L211.8,178.1z"/>
		</g>
	</g>
</g>
</svg>
